<svg xmlns="http://www.w3.org/2000/svg" viewBox="0 0 780 660" width="780" height="660">
  <rect width="780" height="660" fill="#0d0d10"/>
  <line x1="0" y1="165" x2="780" y2="165" stroke="#1a1a2e" stroke-width="0.5" stroke-dasharray="4,10"/>
  <line x1="0" y1="330" x2="780" y2="330" stroke="#1a1a2e" stroke-width="0.5" stroke-dasharray="4,10"/>
  <line x1="0" y1="495" x2="780" y2="495" stroke="#1a1a2e" stroke-width="0.5" stroke-dasharray="4,10"/>
  <line x1="195" y1="0" x2="195" y2="660" stroke="#1a1a2e" stroke-width="0.5" stroke-dasharray="4,10"/>
  <line x1="390" y1="0" x2="390" y2="660" stroke="#1a1a2e" stroke-width="0.5" stroke-dasharray="4,10"/>
  <line x1="585" y1="0" x2="585" y2="660" stroke="#1a1a2e" stroke-width="0.5" stroke-dasharray="4,10"/>
  <path d="M401.0,616.6 L396.1,608.3 L403.8,601.3 L393.7,591.3 L380.0,583.2 L362.0,573.8 L355.5,574.2 L337.9,562.9 L326.6,564.4 L349.9,544.4 L369.7,530.2 L381.4,524.2 L396.1,516.1 L396.5,504.4 L387.7,495.9 L379.1,498.7 L382.5,490.2 L384.9,481.5 L384.9,473.5 L378.6,470.8 L372.0,473.2 L365.5,472.5 L363.4,466.9 L361.8,453.4 L358.5,449.0 L346.7,445.1 L339.6,447.9 L321.1,445.1 L322.3,425.2 L317.1,417.0 L322.6,414.0 L320.9,405.6 L325.7,399.2 L328.8,387.6 L324.6,378.5 L315.1,374.4 L313.2,368.6 L315.8,360.1 L282.2,359.5 L275.5,342.4 L280.6,342.1 L280.4,335.8 L277.0,331.5 L276.2,323.0 L266.0,318.7 L255.0,318.8 L247.8,314.6 L235.9,311.7 L229.1,306.2 L209.5,303.7 L190.5,290.6 L191.9,280.7 L189.7,275.1 L191.6,264.1 L168.7,266.6 L159.5,272.1 L144.2,278.1 L140.3,282.5 L131.2,282.8 L118.2,281.6 L108.4,284.1 L100.4,282.4 L101.6,260.1 L87.2,268.8 L71.8,268.4 L65.1,260.5 L53.5,259.7 L57.2,253.4 L47.5,244.5 L40.2,231.2 L44.8,228.6 L44.8,222.3 L55.4,218.1 L53.7,210.2 L58.1,205.1 L59.4,198.2 L79.4,188.2 L93.7,185.4 L96.1,183.2 L111.9,183.9 L119.7,143.6 L120.1,137.2 L117.4,128.8 L109.6,123.5 L109.7,112.8 L119.6,110.4 L123.1,111.9 L123.7,106.3 L113.4,104.8 L113.2,95.6 L147.3,95.9 L153.1,90.8 L158.0,95.5 L161.4,104.2 L164.7,102.4 L174.3,110.1 L187.9,109.2 L191.3,104.7 L204.3,101.2 L211.5,98.8 L213.5,92.6 L226.0,88.4 L225.1,85.4 L210.3,84.1 L207.8,74.8 L208.6,65.0 L200.7,61.2 L204.0,59.8 L217.0,61.7 L230.9,65.4 L235.9,61.9 L248.5,59.6 L268.1,54.1 L274.5,48.5 L272.2,44.4 L281.3,43.8 L285.3,47.1 L283.1,53.6 L289.1,55.8 L293.1,62.6 L288.2,67.8 L285.4,80.3 L289.9,87.7 L291.2,94.5 L302.0,101.4 L310.5,102.1 L312.5,99.3 L318.0,98.6 L325.9,96.1 L331.6,92.1 L341.3,93.4 L345.6,92.9 L355.1,94.1 L356.7,91.1 L353.7,88.2 L355.5,83.9 L362.5,85.2 L370.8,83.7 L380.8,86.8 L388.5,89.8 L393.9,85.9 L397.8,86.5 L400.2,90.6 L408.6,89.6 L415.3,84.0 L420.6,73.2 L431.0,59.7 L436.9,59.0 L441.3,67.2 L451.1,92.8 L460.5,95.3 L460.9,105.4 L447.8,117.5 L453.2,121.9 L484.1,124.2 L484.8,138.9 L498.1,129.3 L520.1,134.6 L549.2,143.5 L557.7,152.1 L554.8,160.3 L575.2,155.8 L609.2,163.5 L635.4,162.9 L661.2,175.1 L683.6,191.5 L697.1,195.8 L712.0,196.4 L718.4,201.0 L724.3,219.7 L727.2,228.6 L720.3,252.9 L711.4,262.4 L686.7,282.9 L675.5,299.5 L662.6,312.2 L658.2,312.5 L653.3,323.3 L654.6,350.8 L649.7,373.4 L647.8,383.1 L642.3,388.9 L639.2,408.5 L621.4,427.7 L618.5,442.9 L604.3,449.2 L600.2,458.0 L581.2,458.0 L553.7,463.6 L541.3,470.2 L521.7,474.5 L501.1,486.2 L486.3,500.7 L483.8,511.7 L486.7,519.8 L483.4,534.6 L479.5,541.8 L467.2,549.9 L447.8,575.7 L432.4,587.4 L420.5,594.2 L412.5,608.2 L401.0,616.6 Z " fill="#13131a" stroke="rgba(255,69,0,0.55)" stroke-width="1.6" stroke-linejoin="round"/>
  <path d="M401.0,616.6 L396.1,608.3 L403.8,601.3 L393.7,591.3 L380.0,583.2 L362.0,573.8 L355.5,574.2 L337.9,562.9 L326.6,564.4 L349.9,544.4 L369.7,530.2 L381.4,524.2 L396.1,516.1 L396.5,504.4 L387.7,495.9 L379.1,498.7 L382.5,490.2 L384.9,481.5 L384.9,473.5 L378.6,470.8 L372.0,473.2 L365.5,472.5 L363.4,466.9 L361.8,453.4 L358.5,449.0 L346.7,445.1 L339.6,447.9 L321.1,445.1 L322.3,425.2 L317.1,417.0 L322.6,414.0 L320.9,405.6 L325.7,399.2 L328.8,387.6 L324.6,378.5 L315.1,374.4 L313.2,368.6 L315.8,360.1 L282.2,359.5 L275.5,342.4 L280.6,342.1 L280.4,335.8 L277.0,331.5 L276.2,323.0 L266.0,318.7 L255.0,318.8 L247.8,314.6 L235.9,311.7 L229.1,306.2 L209.5,303.7 L190.5,290.6 L191.9,280.7 L189.7,275.1 L191.6,264.1 L168.7,266.6 L159.5,272.1 L144.2,278.1 L140.3,282.5 L131.2,282.8 L118.2,281.6 L108.4,284.1 L100.4,282.4 L101.6,260.1 L87.2,268.8 L71.8,268.4 L65.1,260.5 L53.5,259.7 L57.2,253.4 L47.5,244.5 L40.2,231.2 L44.8,228.6 L44.8,222.3 L55.4,218.1 L53.7,210.2 L58.1,205.1 L59.4,198.2 L79.4,188.2 L93.7,185.4 L96.1,183.2 L111.9,183.9 L119.7,143.6 L120.1,137.2 L117.4,128.8 L109.6,123.5 L109.7,112.8 L119.6,110.4 L123.1,111.9 L123.7,106.3 L113.4,104.8 L113.2,95.6 L147.3,95.9 L153.1,90.8 L158.0,95.5 L161.4,104.2 L164.7,102.4 L174.3,110.1 L187.9,109.2 L191.3,104.7 L204.3,101.2 L211.5,98.8 L213.5,92.6 L226.0,88.4 L225.1,85.4 L210.3,84.1 L207.8,74.8 L208.6,65.0 L200.7,61.2 L204.0,59.8 L217.0,61.7 L230.9,65.4 L235.9,61.9 L248.5,59.6 L268.1,54.1 L274.5,48.5 L272.2,44.4 L281.3,43.8 L285.3,47.1 L283.1,53.6 L289.1,55.8 L293.1,62.6 L288.2,67.8 L285.4,80.3 L289.9,87.7 L291.2,94.5 L302.0,101.4 L310.5,102.1 L312.5,99.3 L318.0,98.6 L325.9,96.1 L331.6,92.1 L341.3,93.4 L345.6,92.9 L355.1,94.1 L356.7,91.1 L353.7,88.2 L355.5,83.9 L362.5,85.2 L370.8,83.7 L380.8,86.8 L388.5,89.8 L393.9,85.9 L397.8,86.5 L400.2,90.6 L408.6,89.6 L415.3,84.0 L420.6,73.2 L431.0,59.7 L436.9,59.0 L441.3,67.2 L451.1,92.8 L460.5,95.3 L460.9,105.4 L447.8,117.5 L453.2,121.9 L484.1,124.2 L484.8,138.9 L498.1,129.3 L520.1,134.6 L549.2,143.5 L557.7,152.1 L554.8,160.3 L575.2,155.8 L609.2,163.5 L635.4,162.9 L661.2,175.1 L683.6,191.5 L697.1,195.8 L712.0,196.4 L718.4,201.0 L724.3,219.7 L727.2,228.6 L720.3,252.9 L711.4,262.4 L686.7,282.9 L675.5,299.5 L662.6,312.2 L658.2,312.5 L653.3,323.3 L654.6,350.8 L649.7,373.4 L647.8,383.1 L642.3,388.9 L639.2,408.5 L621.4,427.7 L618.5,442.9 L604.3,449.2 L600.2,458.0 L581.2,458.0 L553.7,463.6 L541.3,470.2 L521.7,474.5 L501.1,486.2 L486.3,500.7 L483.8,511.7 L486.7,519.8 L483.4,534.6 L479.5,541.8 L467.2,549.9 L447.8,575.7 L432.4,587.4 L420.5,594.2 L412.5,608.2 L401.0,616.6 Z " fill="none" stroke="rgba(255,69,0,0.08)" stroke-width="10" stroke-linejoin="round"/>
  <circle cx="363.8" cy="98.7" r="4.0" fill="#ff4500" opacity="0.87"/>
  <circle cx="320.0" cy="142.8" r="5.0" fill="#ff6600" opacity="0.66"/>
  <circle cx="425.0" cy="164.8" r="4.5" fill="#ff8c00" opacity="0.75"/>
  <circle cx="355.0" cy="194.2" r="4.0" fill="#ff4500" opacity="0.73"/>
  <circle cx="285.0" cy="179.5" r="3.5" fill="#ff6600" opacity="0.91"/>
  <circle cx="486.2" cy="208.9" r="4.0" fill="#ff8c00" opacity="0.89"/>
  <circle cx="460.0" cy="179.5" r="3.0" fill="#ff4500" opacity="0.96"/>
  <circle cx="390.0" cy="164.8" r="3.5" fill="#ff6600" opacity="0.68"/>
  <circle cx="215.0" cy="208.9" r="3.0" fill="#ff8c00" opacity="0.8"/>
  <circle cx="162.5" cy="238.2" r="2.5" fill="#ff4500" opacity="0.66"/>
  <circle cx="110.0" cy="267.6" r="3.0" fill="#ff6600" opacity="0.73"/>
  <circle cx="250.0" cy="252.9" r="3.5" fill="#ff8c00" opacity="0.83"/>
  <circle cx="530.0" cy="252.9" r="3.0" fill="#ff4500" opacity="0.66"/>
  <circle cx="390.0" cy="297.0" r="6.0" fill="#ff6600" opacity="0.72"/>
  <circle cx="355.0" cy="326.3" r="5.5" fill="#ff8c00" opacity="0.88"/>
  <circle cx="425.0" cy="311.6" r="5.0" fill="#ff4500" opacity="0.84"/>
  <circle cx="320.0" cy="341.0" r="5.0" fill="#ff6600" opacity="0.73"/>
  <circle cx="460.0" cy="341.0" r="4.5" fill="#ff8c00" opacity="0.86"/>
  <circle cx="390.0" cy="355.7" r="5.5" fill="#ff4500" opacity="0.93"/>
  <circle cx="425.0" cy="370.4" r="4.5" fill="#ff6600" opacity="0.65"/>
  <circle cx="355.0" cy="385.1" r="4.0" fill="#ff8c00" opacity="0.93"/>
  <circle cx="495.0" cy="326.3" r="4.0" fill="#ff4500" opacity="0.89"/>
  <circle cx="530.0" cy="355.7" r="4.5" fill="#ff6600" opacity="0.77"/>
  <circle cx="451.2" cy="385.1" r="4.0" fill="#ff8c00" opacity="0.7"/>
  <circle cx="477.5" cy="363.0" r="5.0" fill="#ff4500" opacity="0.99"/>
  <circle cx="512.5" cy="385.1" r="4.5" fill="#ff6600" opacity="0.77"/>
  <circle cx="547.5" cy="370.4" r="4.0" fill="#ff8c00" opacity="0.68"/>
  <circle cx="582.5" cy="385.1" r="3.5" fill="#ff4500" opacity="0.68"/>
  <circle cx="442.5" cy="414.4" r="4.0" fill="#ff6600" opacity="0.95"/>
  <circle cx="407.5" cy="421.8" r="3.5" fill="#ff8c00" opacity="0.86"/>
  <circle cx="582.5" cy="208.9" r="2.5" fill="#ff4500" opacity="0.93"/>
  <circle cx="635.0" cy="238.2" r="2.0" fill="#ff6600" opacity="0.91"/>
  <circle cx="670.0" cy="267.6" r="2.5" fill="#ff8c00" opacity="0.84"/>
  <circle cx="565.0" cy="267.6" r="3.0" fill="#ff4500" opacity="0.99"/>
  <circle cx="442.5" cy="487.8" r="2.0" fill="#ff6600" opacity="0.78"/>
  <circle cx="407.5" cy="531.9" r="2.0" fill="#ff8c00" opacity="0.84"/>
  <circle cx="390.0" cy="297.0" r="16" fill="none" stroke="#ff4500" stroke-width="1.3" opacity="0.5"><animate attributeName="r" values="16;30;16" dur="2.6s" repeatCount="indefinite"/><animate attributeName="opacity" values="0.5;0;0.5" dur="2.6s" repeatCount="indefinite"/></circle>
  <circle cx="425.0" cy="164.8" r="11" fill="none" stroke="#ff6600" stroke-width="1" opacity="0.4"><animate attributeName="r" values="11;20;11" dur="3.2s" repeatCount="indefinite"/><animate attributeName="opacity" values="0.4;0;0.4" dur="3.2s" repeatCount="indefinite"/></circle>
  <text x="285.0" y="150.1" font-family="monospace" font-size="10" font-weight="bold" fill="rgba(255,69,0,0.6)" letter-spacing="0.12em" text-anchor="middle">NORTE</text>
  <text x="635.0" y="230.9" font-family="monospace" font-size="10" font-weight="bold" fill="rgba(255,69,0,0.6)" letter-spacing="0.12em" text-anchor="middle">NORDESTE</text>
  <text x="407.5" y="363.0" font-family="monospace" font-size="10" font-weight="bold" fill="rgba(255,69,0,0.6)" letter-spacing="0.12em" text-anchor="middle">CENTRO-OESTE</text>
  <text x="538.8" y="429.1" font-family="monospace" font-size="10" font-weight="bold" fill="rgba(255,69,0,0.6)" letter-spacing="0.12em" text-anchor="middle">SUDESTE</text>
  <text x="425.0" y="524.6" font-family="monospace" font-size="10" font-weight="bold" fill="rgba(255,69,0,0.6)" letter-spacing="0.12em" text-anchor="middle">SUL</text>
  <text x="18" y="20" font-family="monospace" font-size="10" fill="#ff4500" opacity="0.85" letter-spacing="0.1em">NASA FIRMS — BRASIL — FOCOS ATIVOS 24H</text>
  <rect x="18" y="26" width="310" height="0.5" fill="#ff4500" opacity="0.25"/>
  <circle cx="20" cy="642" r="4.5" fill="#ff4500" opacity="0.9"/>
  <text x="32" y="646" font-family="monospace" font-size="10" fill="#7a8694">Foco ativo</text>
  <circle cx="116" cy="642" r="4.5" fill="none" stroke="#ff4500" stroke-width="1.2" opacity="0.5"/>
  <text x="128" y="646" font-family="monospace" font-size="10" fill="#7a8694">Área de alerta</text>
</svg>